<?xml version="1.0" encoding="utf-8"?>
<!-- Generator: Adobe Illustrator 15.1.0, SVG Export Plug-In . SVG Version: 6.00 Build 0)  -->
<!DOCTYPE svg PUBLIC "-//W3C//DTD SVG 1.1//EN" "http://www.w3.org/Graphics/SVG/1.1/DTD/svg11.dtd">
<svg version="1.1" id="Ebene_1" xmlns="http://www.w3.org/2000/svg" xmlns:xlink="http://www.w3.org/1999/xlink" x="0px" y="0px"
	 width="195px" height="16.5px" viewBox="0 0 195 16.5" enable-background="new 0 0 195 16.5" xml:space="preserve">
<g>
	<rect y="4" fill="none" width="175.766" height="9.882"/>
	<path d="M0.804,4H4.32c0.464,0,0.884,0.082,1.26,0.246s0.698,0.384,0.966,0.66C6.814,5.182,7.02,5.504,7.164,5.872
		C7.308,6.24,7.38,6.628,7.38,7.036c0,0.408-0.072,0.796-0.216,1.164C7.02,8.568,6.814,8.89,6.546,9.166s-0.59,0.496-0.966,0.66
		c-0.376,0.164-0.796,0.246-1.26,0.246H2.748V12.4H0.804V4z M4.08,8.488c0.2,0,0.384-0.04,0.552-0.12
		C4.8,8.288,4.942,8.182,5.058,8.05c0.116-0.132,0.206-0.286,0.27-0.462c0.064-0.176,0.096-0.36,0.096-0.552
		c0-0.192-0.032-0.376-0.096-0.552c-0.064-0.176-0.154-0.33-0.27-0.462C4.942,5.89,4.8,5.784,4.632,5.704S4.28,5.584,4.08,5.584
		H2.748v2.904H4.08z"/>
	<path d="M14.124,6.616V12.4h-1.836v-0.828c-0.16,0.304-0.402,0.542-0.726,0.714c-0.324,0.172-0.714,0.258-1.17,0.258
		c-0.376,0-0.7-0.058-0.972-0.174c-0.272-0.116-0.488-0.278-0.648-0.486c-0.184-0.224-0.304-0.482-0.36-0.774
		c-0.056-0.292-0.084-0.646-0.084-1.062V6.616h1.824V9.58c0,0.416,0.074,0.754,0.222,1.014c0.148,0.26,0.414,0.39,0.798,0.39
		c0.384,0,0.666-0.132,0.846-0.396s0.27-0.62,0.27-1.068V6.616H14.124z"/>
	<path d="M15.684,6.616h1.836v0.84c0.16-0.312,0.402-0.554,0.726-0.726c0.324-0.172,0.714-0.258,1.17-0.258
		c0.375,0,0.7,0.058,0.972,0.174s0.488,0.278,0.648,0.486c0.184,0.224,0.306,0.482,0.366,0.774c0.06,0.292,0.09,0.646,0.09,1.062
		V12.4h-1.836V9.436c0-0.416-0.074-0.754-0.222-1.014c-0.148-0.26-0.414-0.39-0.798-0.39c-0.376,0-0.656,0.132-0.84,0.396
		c-0.184,0.264-0.276,0.62-0.276,1.068V12.4h-1.836V6.616z"/>
	<path d="M26.52,9.508l2.244,2.892H26.58l-1.776-2.424V12.4h-1.836V4h1.836v5.064l1.788-2.448h2.184L26.52,9.508z"/>
	<path d="M33.228,12.4c-0.136,0.024-0.306,0.046-0.51,0.066c-0.204,0.02-0.442,0.03-0.714,0.03c-0.216,0-0.444-0.016-0.684-0.048
		c-0.24-0.032-0.462-0.114-0.666-0.246c-0.204-0.132-0.372-0.336-0.504-0.612s-0.198-0.654-0.198-1.134V7.984H29.04V6.616h0.912V4.9
		h1.824v1.716h1.32v1.368h-1.32v2.06c0,0.215,0.02,0.387,0.06,0.515c0.04,0.127,0.096,0.225,0.168,0.293
		c0.072,0.068,0.156,0.114,0.252,0.138c0.096,0.024,0.2,0.036,0.312,0.036s0.228,0,0.348,0s0.224-0.01,0.312-0.03V12.4z"/>
	<path d="M38.58,9.952c0.008,0.176,0.034,0.342,0.078,0.498c0.044,0.156,0.116,0.292,0.216,0.408c0.1,0.116,0.23,0.208,0.39,0.276
		c0.16,0.068,0.36,0.102,0.6,0.102c0.32,0,0.562-0.064,0.726-0.192c0.164-0.128,0.278-0.284,0.342-0.468h1.8
		c-0.04,0.272-0.134,0.528-0.282,0.768c-0.148,0.24-0.344,0.45-0.588,0.63c-0.244,0.18-0.532,0.322-0.864,0.426
		s-0.706,0.156-1.122,0.156c-0.504,0-0.95-0.074-1.338-0.222s-0.714-0.358-0.978-0.63c-0.264-0.272-0.464-0.594-0.6-0.966
		c-0.136-0.372-0.204-0.782-0.204-1.23c0-0.424,0.066-0.82,0.198-1.188c0.132-0.368,0.328-0.69,0.588-0.966
		c0.26-0.276,0.58-0.494,0.96-0.654c0.38-0.16,0.822-0.24,1.326-0.24c0.456,0,0.866,0.072,1.23,0.216
		c0.364,0.144,0.676,0.336,0.936,0.576c0.26,0.24,0.46,0.52,0.6,0.84c0.14,0.32,0.21,0.656,0.21,1.008
		c0,0.12-0.002,0.248-0.006,0.384c-0.004,0.136-0.022,0.292-0.054,0.468H38.58z M39.816,7.684c-0.36,0-0.656,0.104-0.888,0.312
		c-0.232,0.208-0.348,0.508-0.348,0.9h2.424c0-0.376-0.11-0.672-0.33-0.888C40.454,7.792,40.168,7.684,39.816,7.684z"/>
	<path d="M43.788,4.696c0-0.328,0.112-0.604,0.336-0.828c0.224-0.224,0.504-0.336,0.84-0.336c0.168,0,0.324,0.03,0.468,0.09
		s0.27,0.142,0.378,0.246c0.108,0.104,0.192,0.228,0.252,0.372s0.09,0.296,0.09,0.456c0,0.16-0.03,0.31-0.09,0.45
		S45.918,5.41,45.81,5.518c-0.108,0.108-0.234,0.192-0.378,0.252s-0.3,0.09-0.468,0.09s-0.322-0.03-0.462-0.09
		s-0.264-0.144-0.372-0.252c-0.108-0.108-0.192-0.232-0.252-0.372S43.788,4.856,43.788,4.696z M44.052,6.616h1.836V12.4h-1.836
		V6.616z"/>
	<path d="M47.448,6.616h1.836v0.84c0.16-0.312,0.402-0.554,0.726-0.726c0.324-0.172,0.714-0.258,1.17-0.258
		c0.375,0,0.7,0.058,0.972,0.174S52.64,6.924,52.8,7.132c0.184,0.224,0.306,0.482,0.366,0.774c0.06,0.292,0.09,0.646,0.09,1.062
		V12.4H51.42V9.436c0-0.416-0.074-0.754-0.222-1.014c-0.148-0.26-0.414-0.39-0.798-0.39c-0.376,0-0.656,0.132-0.84,0.396
		c-0.184,0.264-0.276,0.62-0.276,1.068V12.4h-1.836V6.616z"/>
	<path d="M56.184,9.952c0.008,0.176,0.034,0.342,0.078,0.498c0.044,0.156,0.116,0.292,0.216,0.408c0.1,0.116,0.23,0.208,0.39,0.276
		c0.16,0.068,0.36,0.102,0.6,0.102c0.32,0,0.562-0.064,0.726-0.192c0.164-0.128,0.278-0.284,0.342-0.468h1.8
		c-0.04,0.272-0.134,0.528-0.282,0.768c-0.148,0.24-0.344,0.45-0.588,0.63c-0.244,0.18-0.532,0.322-0.864,0.426
		s-0.706,0.156-1.122,0.156c-0.504,0-0.95-0.074-1.338-0.222s-0.714-0.358-0.978-0.63c-0.264-0.272-0.464-0.594-0.6-0.966
		c-0.136-0.372-0.204-0.782-0.204-1.23c0-0.424,0.066-0.82,0.198-1.188c0.132-0.368,0.328-0.69,0.588-0.966
		c0.26-0.276,0.58-0.494,0.96-0.654c0.38-0.16,0.822-0.24,1.326-0.24c0.456,0,0.866,0.072,1.23,0.216
		c0.364,0.144,0.676,0.336,0.936,0.576c0.26,0.24,0.46,0.52,0.6,0.84c0.14,0.32,0.21,0.656,0.21,1.008
		c0,0.12-0.002,0.248-0.006,0.384c-0.004,0.136-0.022,0.292-0.054,0.468H56.184z M57.419,7.684c-0.36,0-0.656,0.104-0.888,0.312
		c-0.232,0.208-0.348,0.508-0.348,0.9h2.424c0-0.376-0.11-0.672-0.33-0.888C58.058,7.792,57.771,7.684,57.419,7.684z"/>
	<path d="M65.808,8.284c-0.128-0.032-0.236-0.054-0.324-0.066C65.396,8.206,65.288,8.2,65.16,8.2c-0.504,0-0.908,0.148-1.212,0.444
		c-0.304,0.296-0.456,0.796-0.456,1.5V12.4h-1.836V6.616h1.836v0.936c0.136-0.272,0.362-0.512,0.678-0.72s0.678-0.312,1.086-0.312
		c0.216,0,0.4,0.032,0.552,0.096V8.284z"/>
	<path d="M71.543,8.848V12.4H69.6V4h1.944v3.564L74.255,4h2.34l-3.324,4.2l3.324,4.2h-2.34L71.543,8.848z"/>
	<path d="M82.824,6.616V12.4h-1.836v-0.816c-0.072,0.136-0.168,0.262-0.288,0.378c-0.12,0.116-0.258,0.216-0.414,0.3
		c-0.156,0.084-0.326,0.152-0.51,0.204s-0.368,0.078-0.552,0.078c-0.417,0-0.798-0.078-1.146-0.234
		c-0.348-0.156-0.646-0.368-0.894-0.636c-0.248-0.268-0.44-0.588-0.576-0.96c-0.136-0.372-0.204-0.774-0.204-1.206
		s0.068-0.834,0.204-1.206c0.136-0.372,0.328-0.692,0.576-0.96c0.248-0.268,0.546-0.48,0.894-0.636
		c0.348-0.156,0.729-0.234,1.146-0.234c0.184,0,0.368,0.026,0.552,0.078c0.184,0.052,0.354,0.122,0.51,0.21
		c0.156,0.088,0.294,0.192,0.414,0.312c0.12,0.12,0.216,0.244,0.288,0.372V6.616H82.824z M79.608,10.984
		c0.208,0,0.396-0.04,0.564-0.12c0.168-0.08,0.312-0.186,0.432-0.318s0.214-0.288,0.282-0.468c0.068-0.18,0.102-0.37,0.102-0.57
		c0-0.2-0.034-0.388-0.102-0.564c-0.068-0.176-0.162-0.332-0.282-0.468c-0.12-0.136-0.264-0.244-0.432-0.324
		c-0.168-0.08-0.356-0.12-0.564-0.12s-0.396,0.041-0.564,0.12c-0.168,0.08-0.312,0.188-0.432,0.324
		c-0.12,0.136-0.214,0.292-0.282,0.468c-0.068,0.176-0.102,0.364-0.102,0.564c0,0.2,0.034,0.39,0.102,0.57
		c0.068,0.18,0.162,0.336,0.282,0.468s0.264,0.238,0.432,0.318C79.212,10.944,79.4,10.984,79.608,10.984z"/>
	<path d="M88.536,8.284C88.408,8.252,88.3,8.23,88.212,8.218C88.124,8.206,88.016,8.2,87.888,8.2c-0.504,0-0.908,0.148-1.212,0.444
		c-0.304,0.296-0.456,0.796-0.456,1.5V12.4h-1.836V6.616h1.836v0.936c0.136-0.272,0.362-0.512,0.678-0.72s0.678-0.312,1.086-0.312
		c0.216,0,0.4,0.032,0.552,0.096V8.284z"/>
	<path d="M93,12.4c-0.136,0.024-0.306,0.046-0.51,0.066c-0.204,0.02-0.442,0.03-0.714,0.03c-0.216,0-0.444-0.016-0.684-0.048
		c-0.24-0.032-0.462-0.114-0.666-0.246c-0.204-0.132-0.372-0.336-0.504-0.612s-0.198-0.654-0.198-1.134V7.984h-0.912V6.616h0.912
		V4.9h1.824v1.716h1.32v1.368h-1.32v2.06c0,0.215,0.02,0.387,0.06,0.515c0.04,0.127,0.096,0.225,0.168,0.293
		c0.072,0.068,0.156,0.114,0.252,0.138c0.096,0.024,0.2,0.036,0.312,0.036s0.228,0,0.348,0s0.224-0.01,0.312-0.03V12.4z"/>
	<path d="M95.292,9.952c0.008,0.176,0.034,0.342,0.078,0.498c0.044,0.156,0.116,0.292,0.216,0.408c0.1,0.116,0.23,0.208,0.39,0.276
		c0.16,0.068,0.36,0.102,0.6,0.102c0.32,0,0.562-0.064,0.726-0.192c0.164-0.128,0.278-0.284,0.342-0.468h1.8
		c-0.04,0.272-0.134,0.528-0.282,0.768c-0.148,0.24-0.344,0.45-0.588,0.63c-0.244,0.18-0.532,0.322-0.864,0.426
		s-0.706,0.156-1.122,0.156c-0.504,0-0.95-0.074-1.338-0.222s-0.714-0.358-0.978-0.63c-0.264-0.272-0.464-0.594-0.6-0.966
		c-0.136-0.372-0.204-0.782-0.204-1.23c0-0.424,0.066-0.82,0.198-1.188c0.132-0.368,0.328-0.69,0.588-0.966
		c0.26-0.276,0.58-0.494,0.96-0.654c0.38-0.16,0.822-0.24,1.326-0.24c0.456,0,0.866,0.072,1.23,0.216
		c0.364,0.144,0.676,0.336,0.936,0.576c0.26,0.24,0.46,0.52,0.6,0.84c0.14,0.32,0.21,0.656,0.21,1.008
		c0,0.12-0.002,0.248-0.006,0.384c-0.004,0.136-0.022,0.292-0.054,0.468H95.292z M96.527,7.684c-0.36,0-0.656,0.104-0.888,0.312
		c-0.232,0.208-0.348,0.508-0.348,0.9h2.424c0-0.376-0.11-0.672-0.33-0.888C97.166,7.792,96.879,7.684,96.527,7.684z"/>
	<path d="M103.679,4h1.776v3.456c0.16-0.304,0.4-0.544,0.72-0.72c0.32-0.176,0.704-0.264,1.152-0.264
		c0.375,0,0.692,0.058,0.948,0.174s0.464,0.278,0.624,0.486c0.184,0.224,0.308,0.484,0.372,0.78s0.096,0.652,0.096,1.068v3.42
		h-1.776V9.436c0-0.416-0.074-0.754-0.222-1.014c-0.148-0.26-0.414-0.39-0.798-0.39c-0.376,0-0.656,0.132-0.84,0.396
		c-0.184,0.264-0.276,0.62-0.276,1.068V12.4h-1.776V4z"/>
	<path d="M110.58,4.696c0-0.328,0.112-0.604,0.336-0.828c0.224-0.224,0.505-0.336,0.841-0.336c0.168,0,0.322,0.03,0.467,0.09
		s0.27,0.142,0.379,0.246c0.107,0.104,0.191,0.228,0.252,0.372c0.059,0.144,0.09,0.296,0.09,0.456c0,0.16-0.031,0.31-0.09,0.45
		c-0.061,0.14-0.145,0.264-0.252,0.372c-0.109,0.108-0.234,0.192-0.379,0.252s-0.299,0.09-0.467,0.09s-0.322-0.03-0.463-0.09
		s-0.264-0.144-0.372-0.252c-0.108-0.108-0.192-0.232-0.252-0.372S110.58,4.856,110.58,4.696z M110.843,6.616h1.837V12.4h-1.837
		V6.616z"/>
	<path d="M115.691,9.952c0.008,0.176,0.033,0.342,0.077,0.498c0.044,0.156,0.116,0.292,0.217,0.408
		c0.1,0.116,0.229,0.208,0.39,0.276c0.16,0.068,0.36,0.102,0.6,0.102c0.32,0,0.562-0.064,0.727-0.192s0.277-0.284,0.342-0.468h1.8
		c-0.04,0.272-0.134,0.528-0.282,0.768c-0.147,0.24-0.344,0.45-0.588,0.63c-0.244,0.18-0.532,0.322-0.863,0.426
		c-0.332,0.104-0.706,0.156-1.122,0.156c-0.504,0-0.95-0.074-1.338-0.222c-0.389-0.148-0.715-0.358-0.979-0.63
		s-0.464-0.594-0.6-0.966c-0.137-0.372-0.204-0.782-0.204-1.23c0-0.424,0.065-0.82,0.198-1.188c0.132-0.368,0.327-0.69,0.588-0.966
		c0.26-0.276,0.58-0.494,0.96-0.654c0.38-0.16,0.821-0.24,1.326-0.24c0.455,0,0.865,0.072,1.229,0.216s0.676,0.336,0.937,0.576
		c0.26,0.24,0.459,0.52,0.6,0.84c0.14,0.32,0.21,0.656,0.21,1.008c0,0.12-0.002,0.248-0.006,0.384
		c-0.004,0.136-0.022,0.292-0.054,0.468H115.691z M116.926,7.684c-0.359,0-0.656,0.104-0.888,0.312
		c-0.232,0.208-0.348,0.508-0.348,0.9h2.424c0-0.376-0.11-0.672-0.33-0.888C117.564,7.792,117.279,7.684,116.926,7.684z"/>
	<path d="M125.314,8.284c-0.128-0.032-0.235-0.054-0.323-0.066c-0.089-0.012-0.196-0.018-0.324-0.018
		c-0.504,0-0.908,0.148-1.212,0.444c-0.305,0.296-0.456,0.796-0.456,1.5V12.4h-1.836V6.616h1.836v0.936
		c0.136-0.272,0.361-0.512,0.678-0.72s0.678-0.312,1.086-0.312c0.216,0,0.4,0.032,0.552,0.096V8.284z"/>
	<path d="M135.142,6.616V12.4h-1.836v-0.816c-0.072,0.136-0.168,0.262-0.288,0.378c-0.12,0.116-0.258,0.216-0.414,0.3
		c-0.155,0.084-0.326,0.152-0.51,0.204c-0.185,0.052-0.368,0.078-0.552,0.078c-0.416,0-0.798-0.078-1.146-0.234
		c-0.348-0.156-0.646-0.368-0.894-0.636s-0.44-0.588-0.576-0.96s-0.204-0.774-0.204-1.206s0.068-0.834,0.204-1.206
		s0.328-0.692,0.576-0.96s0.546-0.48,0.894-0.636c0.349-0.156,0.73-0.234,1.146-0.234c0.184,0,0.367,0.026,0.552,0.078
		c0.184,0.052,0.354,0.122,0.51,0.21c0.156,0.088,0.294,0.192,0.414,0.312s0.216,0.244,0.288,0.372V6.616H135.142z M131.926,10.984
		c0.208,0,0.396-0.04,0.564-0.12c0.168-0.08,0.312-0.186,0.432-0.318s0.214-0.288,0.282-0.468c0.067-0.18,0.102-0.37,0.102-0.57
		c0-0.2-0.034-0.388-0.102-0.564c-0.068-0.176-0.162-0.332-0.282-0.468c-0.12-0.136-0.264-0.244-0.432-0.324
		c-0.169-0.08-0.356-0.12-0.564-0.12s-0.396,0.041-0.564,0.12c-0.168,0.08-0.312,0.188-0.432,0.324
		c-0.12,0.136-0.214,0.292-0.282,0.468c-0.067,0.176-0.102,0.364-0.102,0.564c0,0.2,0.034,0.39,0.102,0.57
		c0.068,0.18,0.162,0.336,0.282,0.468s0.264,0.238,0.432,0.318C131.53,10.944,131.718,10.984,131.926,10.984z"/>
	<path d="M136.703,6.616h1.836v0.84c0.16-0.312,0.401-0.554,0.726-0.726s0.714-0.258,1.17-0.258c0.376,0,0.7,0.058,0.973,0.174
		c0.271,0.116,0.487,0.278,0.647,0.486c0.185,0.224,0.307,0.482,0.366,0.774c0.06,0.292,0.09,0.646,0.09,1.062V12.4h-1.836V9.436
		c0-0.416-0.074-0.754-0.222-1.014c-0.148-0.26-0.414-0.39-0.798-0.39c-0.377,0-0.656,0.132-0.841,0.396
		c-0.184,0.264-0.275,0.62-0.275,1.068V12.4h-1.836V6.616z"/>
	<path d="M143.987,4h1.836v8.4h-1.836V4z"/>
	<path d="M148.834,9.952c0.008,0.176,0.033,0.342,0.077,0.498c0.044,0.156,0.116,0.292,0.217,0.408
		c0.1,0.116,0.229,0.208,0.39,0.276c0.16,0.068,0.36,0.102,0.6,0.102c0.32,0,0.562-0.064,0.727-0.192
		c0.164-0.128,0.277-0.284,0.341-0.468h1.801c-0.041,0.272-0.135,0.528-0.283,0.768c-0.146,0.24-0.344,0.45-0.588,0.63
		c-0.244,0.18-0.531,0.322-0.863,0.426c-0.332,0.104-0.706,0.156-1.122,0.156c-0.504,0-0.95-0.074-1.338-0.222
		c-0.389-0.148-0.715-0.358-0.979-0.63s-0.464-0.594-0.6-0.966c-0.137-0.372-0.204-0.782-0.204-1.23c0-0.424,0.065-0.82,0.198-1.188
		c0.132-0.368,0.327-0.69,0.588-0.966c0.26-0.276,0.58-0.494,0.96-0.654c0.38-0.16,0.821-0.24,1.326-0.24
		c0.455,0,0.865,0.072,1.23,0.216c0.363,0.144,0.676,0.336,0.936,0.576c0.26,0.24,0.459,0.52,0.6,0.84
		c0.141,0.32,0.211,0.656,0.211,1.008c0,0.12-0.002,0.248-0.006,0.384c-0.004,0.136-0.023,0.292-0.055,0.468H148.834z M150.07,7.684
		c-0.359,0-0.656,0.104-0.888,0.312c-0.232,0.208-0.348,0.508-0.348,0.9h2.423c0-0.376-0.109-0.672-0.33-0.888
		C150.708,7.792,150.422,7.684,150.07,7.684z"/>
	<path d="M160.377,12.364c0,0.528-0.076,0.966-0.227,1.314c-0.152,0.348-0.381,0.638-0.684,0.87
		c-0.273,0.208-0.598,0.364-0.973,0.468c-0.377,0.104-0.832,0.156-1.369,0.156c-0.543,0-0.998-0.06-1.361-0.18
		c-0.363-0.12-0.666-0.284-0.906-0.492c-0.256-0.216-0.455-0.466-0.6-0.75c-0.145-0.284-0.225-0.586-0.24-0.906h1.836
		c0.023,0.248,0.143,0.472,0.354,0.672c0.213,0.2,0.52,0.3,0.918,0.3c0.434,0,0.777-0.104,1.033-0.312s0.383-0.54,0.383-0.996
		v-0.972c-0.16,0.264-0.398,0.48-0.719,0.648s-0.668,0.252-1.045,0.252c-0.416,0-0.797-0.072-1.145-0.216
		c-0.35-0.144-0.646-0.346-0.895-0.606c-0.248-0.26-0.443-0.568-0.582-0.924c-0.141-0.356-0.211-0.75-0.211-1.182
		s0.066-0.834,0.199-1.206c0.131-0.372,0.32-0.692,0.57-0.96c0.246-0.268,0.543-0.48,0.887-0.636
		c0.344-0.156,0.729-0.234,1.152-0.234c0.367,0,0.719,0.086,1.051,0.258s0.576,0.41,0.736,0.714V6.616h1.836V12.364z M157.15,8.032
		c-0.209,0-0.396,0.041-0.564,0.12c-0.168,0.08-0.312,0.188-0.432,0.324c-0.121,0.136-0.213,0.292-0.277,0.468
		c-0.062,0.176-0.096,0.364-0.096,0.564c0,0.2,0.033,0.39,0.096,0.57c0.064,0.18,0.156,0.336,0.277,0.468
		c0.119,0.132,0.264,0.238,0.432,0.318c0.168,0.08,0.355,0.12,0.564,0.12c0.207,0,0.396-0.04,0.57-0.12
		c0.172-0.08,0.316-0.186,0.438-0.318c0.119-0.132,0.213-0.288,0.281-0.468c0.068-0.18,0.102-0.37,0.102-0.57
		c0-0.2-0.033-0.388-0.102-0.564c-0.068-0.176-0.162-0.332-0.281-0.468c-0.121-0.136-0.266-0.244-0.438-0.324
		C157.547,8.072,157.357,8.032,157.15,8.032z"/>
	<path d="M163.354,9.952c0.008,0.176,0.033,0.342,0.078,0.498c0.043,0.156,0.115,0.292,0.217,0.408
		c0.1,0.116,0.229,0.208,0.389,0.276c0.16,0.068,0.361,0.102,0.6,0.102c0.32,0,0.562-0.064,0.727-0.192s0.277-0.284,0.342-0.468
		h1.801c-0.041,0.272-0.135,0.528-0.283,0.768c-0.146,0.24-0.344,0.45-0.588,0.63c-0.244,0.18-0.531,0.322-0.863,0.426
		s-0.705,0.156-1.121,0.156c-0.504,0-0.951-0.074-1.338-0.222c-0.389-0.148-0.715-0.358-0.979-0.63s-0.465-0.594-0.6-0.966
		c-0.137-0.372-0.205-0.782-0.205-1.23c0-0.424,0.066-0.82,0.199-1.188c0.131-0.368,0.326-0.69,0.588-0.966
		c0.26-0.276,0.58-0.494,0.959-0.654c0.381-0.16,0.822-0.24,1.326-0.24c0.455,0,0.865,0.072,1.23,0.216
		c0.363,0.144,0.676,0.336,0.936,0.576c0.26,0.24,0.459,0.52,0.6,0.84c0.141,0.32,0.211,0.656,0.211,1.008
		c0,0.12-0.002,0.248-0.006,0.384c-0.004,0.136-0.023,0.292-0.055,0.468H163.354z M164.59,7.684c-0.359,0-0.656,0.104-0.889,0.312
		s-0.348,0.508-0.348,0.9h2.424c0-0.376-0.109-0.672-0.33-0.888C165.227,7.792,164.941,7.684,164.59,7.684z"/>
	<path d="M168.826,6.616h1.836v0.84c0.16-0.312,0.4-0.554,0.725-0.726s0.715-0.258,1.17-0.258c0.377,0,0.701,0.058,0.973,0.174
		s0.488,0.278,0.648,0.486c0.184,0.224,0.307,0.482,0.365,0.774c0.061,0.292,0.09,0.646,0.09,1.062V12.4h-1.836V9.436
		c0-0.416-0.074-0.754-0.221-1.014c-0.148-0.26-0.414-0.39-0.799-0.39c-0.377,0-0.656,0.132-0.84,0.396
		c-0.184,0.264-0.275,0.62-0.275,1.068V12.4h-1.836V6.616z"/>
</g>
<circle cx="186.706" cy="8.353" r="6.823"/>
</svg>
